<svg version="1.1" id="Layer_1" xmlns="http://www.w3.org/2000/svg" xmlns:xlink="http://www.w3.org/1999/xlink" x="0px" y="0px"
	 width="100%" viewBox="0 0 1000 1000" enable-background="new 0 0 1000 1000" xml:space="preserve">
<path fill="#FAF9F6" opacity="1.000000" stroke="none"
	d="
M492.000000,1001.000000
	C328.000000,1001.000000 164.500000,1001.000000 1.000000,1001.000000
	C1.000000,667.666687 1.000000,334.333344 1.000000,1.000000
	C334.333344,1.000000 667.666687,1.000000 1001.000000,1.000000
	C1001.000000,334.333344 1001.000000,667.666687 1001.000000,1001.000000
	C831.500000,1001.000000 662.000000,1001.000000 492.000000,1001.000000
M648.615479,354.589752 
	C646.884705,353.303040 645.318359,351.650208 643.397156,350.787537 
	C628.063049,343.902283 612.680298,337.123962 597.269653,330.411194 
	C592.623474,328.387360 588.968933,329.498932 587.665222,333.244507 
	C586.157776,337.575409 588.313599,340.197296 592.167603,341.877991 
	C599.796814,345.204987 607.414001,348.559906 615.024780,351.928741 
	C619.781250,354.034149 624.517212,356.186035 630.046326,358.669159 
	C628.255981,359.880493 627.511230,360.497284 626.673035,360.935242 
	C588.884705,380.679260 551.080139,400.392273 513.298462,420.149109 
	C504.453430,424.774323 495.880646,424.405884 487.075714,419.782501 
	C449.631165,400.120697 412.105316,380.613800 374.618988,361.031525 
	C373.432190,360.411560 372.352081,359.587402 370.819275,358.598450 
	C383.903168,352.842499 396.248596,347.444153 408.563812,341.977722 
	C413.599762,339.742371 414.988861,337.092041 413.385834,333.222565 
	C411.800262,329.395233 408.158752,328.491852 403.279785,330.611786 
	C389.689911,336.516510 376.135651,342.507477 362.470215,348.232544 
	C350.143433,353.396729 344.238983,361.861694 344.238251,375.176331 
	C344.236359,409.675079 344.720581,444.182465 344.092377,478.669647 
	C343.662170,502.287384 362.343903,516.239807 381.393829,515.968262 
	C410.886719,515.547974 440.390076,515.860046 469.888977,515.858704 
	C520.553772,515.856445 571.219360,516.004395 621.882812,515.739929 
	C634.345093,515.674927 644.627258,510.468079 651.690063,498.863892 
	C653.364685,493.572418 656.427368,488.297424 656.490417,482.986816 
	C656.926758,446.251495 656.870422,409.507935 656.629272,372.769226 
	C656.585754,366.145660 654.841248,359.583771 648.615479,354.589752 
M522.095398,291.509308 
	C521.591003,289.922852 521.163147,288.307129 520.569458,286.754822 
	C517.356018,278.352386 515.122192,277.503296 506.759338,281.239777 
	C493.928528,286.972534 484.431061,296.172577 478.279724,308.758698 
	C470.933655,323.789307 471.427795,339.669006 473.618927,355.664246 
	C474.052032,358.825928 474.951782,361.923676 475.652557,365.124969 
	C501.484802,356.613708 529.860413,327.978882 522.095398,291.509308 
M288.381683,589.728577 
	C294.214417,576.494080 288.128937,564.246582 273.836243,562.366516 
	C264.021576,561.075439 253.968567,561.512024 244.019348,561.375000 
	C240.624237,561.328247 240.279587,563.956787 240.281601,566.674561 
	C240.297424,588.130859 240.354355,609.587708 240.208160,631.043091 
	C240.177765,635.503357 242.052826,636.855408 246.225494,636.744385 
	C253.705063,636.545349 261.209625,636.973816 268.672058,636.563416 
	C272.910095,636.330322 277.297821,635.504272 281.246277,633.981262 
	C290.721771,630.326355 295.252808,622.131653 293.753418,612.105713 
	C292.696716,605.040222 288.466125,600.207336 281.940125,597.326904 
	C284.161346,594.798340 286.097504,592.594238 288.381683,589.728577 
M547.933777,631.230652 
	C547.933777,615.371521 547.933777,599.512390 547.933777,583.653259 
	C554.994751,591.808105 560.799622,600.260681 566.677063,608.662537 
	C572.682373,617.247131 578.834534,625.729858 584.770752,634.361572 
	C587.541016,638.389771 591.485535,636.618896 594.777344,636.259338 
	C595.938904,636.132507 597.295166,632.560913 597.533203,630.446228 
	C597.880737,627.359741 597.119568,624.167236 597.142822,621.022278 
	C597.278137,602.717590 597.351379,584.409973 597.794434,566.111755 
	C597.926086,560.674133 594.677124,561.425659 591.311462,561.258423 
	C587.809875,561.084412 585.835999,561.562073 585.912903,565.989075 
	C586.173096,580.974060 585.993835,595.966919 585.951477,610.956665 
	C585.948242,612.103394 585.701721,613.249451 585.438599,615.509949 
	C573.586487,598.591187 562.470093,582.654114 551.273193,566.773804 
	C546.947327,560.638550 544.772766,560.001160 537.397034,562.139587 
	C537.397034,586.843567 537.397034,611.547485 537.397034,636.185913 
	C546.556152,637.426514 547.332947,637.111450 547.933777,631.230652 
M490.486877,603.598145 
	C491.999023,597.502319 499.433899,594.776672 504.516785,596.050415 
	C510.071564,597.442566 512.242004,600.803040 512.259949,608.283447 
	C512.279175,616.282532 512.432007,624.287415 512.174683,632.278503 
	C512.038452,636.509949 514.293518,636.854370 517.504211,636.683838 
	C520.599731,636.519470 523.967163,637.442566 523.815125,632.210144 
	C523.539368,622.719177 523.876526,613.211853 523.694275,603.716370 
	C523.521362,594.704712 517.831604,587.847229 508.954376,586.032104 
	C500.500977,584.303772 493.185516,586.423706 487.732788,593.712769 
	C477.918060,582.628845 467.246185,582.914001 455.833771,591.676086 
	C454.068695,584.827454 449.622101,587.064819 445.207886,587.585144 
	C445.207886,603.013245 445.132416,618.150635 445.249847,633.286499 
	C445.289551,638.400513 449.468994,636.207703 452.029602,636.601257 
	C454.923218,637.046082 456.792236,636.204285 456.737030,632.643494 
	C456.602661,623.980164 456.603333,615.310547 456.774353,606.647949 
	C456.902985,600.130432 461.854889,595.777771 468.635345,595.842041 
	C474.666229,595.899170 478.323212,599.913086 478.357208,606.631531 
	C478.396851,614.463745 478.515076,622.300476 478.301971,630.127197 
	C478.187897,634.316895 478.459290,636.957153 483.982941,636.862549 
	C489.060089,636.775574 490.073181,634.917114 489.957092,630.360474 
	C489.736786,621.712219 490.080566,613.049622 490.486877,603.598145 
M705.169739,610.619141 
	C705.260071,623.521667 711.865540,632.921814 723.274536,636.383789 
	C734.927673,639.919861 747.578186,636.538696 753.042969,628.311951 
	C752.615234,627.686584 752.068176,627.051331 751.702576,626.324829 
	C749.611938,622.170044 747.338257,621.554749 743.191772,624.460571 
	C740.241516,626.528076 736.147095,627.532471 732.460571,627.862061 
	C724.597595,628.564941 717.384583,622.650574 717.522034,615.843811 
	C719.142639,615.843811 720.782227,615.844849 722.421753,615.843628 
	C732.253418,615.836609 742.087219,615.923889 751.914368,615.708679 
	C753.232300,615.679871 755.560730,614.218689 755.649048,613.257751 
	C756.270264,606.504700 755.580994,599.949585 750.828308,594.493591 
	C743.218323,585.757324 733.868103,583.189453 722.924377,586.772522 
	C711.881653,590.388000 706.332336,598.400269 705.169739,610.619141 
M386.975189,597.565674 
	C385.740631,602.486145 383.533966,607.393188 383.465515,612.329834 
	C383.302032,624.116760 390.619354,633.288696 401.460907,636.455200 
	C412.884521,639.791809 424.916840,636.216003 431.016510,627.671692 
	C438.382904,617.353027 438.609100,605.254700 431.489563,595.652588 
	C421.178650,581.746277 397.744415,581.394104 386.975189,597.565674 
M620.880615,588.277222 
	C605.911865,596.561829 601.960022,614.504028 612.440979,627.786316 
	C619.851685,637.177673 629.993469,639.492615 641.075867,636.619751 
	C651.539795,633.907166 657.876770,626.441589 659.453918,615.857666 
	C660.927429,605.968872 658.407715,596.861755 649.901184,590.656433 
	C641.131653,584.259338 631.514465,583.640198 620.880615,588.277222 
M329.273438,627.157898 
	C333.518158,632.973450 339.372253,636.040344 346.331451,637.402893 
	C357.877716,639.663574 369.831451,633.652161 374.789978,622.951660 
	C379.661102,612.439819 376.561676,597.737366 368.064667,591.048950 
	C357.829132,582.992065 342.080231,583.435852 332.641937,592.047058 
	C322.973450,600.868347 321.455139,614.868774 329.273438,627.157898 
M428.916504,326.537903 
	C436.627411,339.153900 448.414856,345.429749 463.594360,349.643585 
	C462.937714,341.005768 463.199768,333.767181 461.701569,326.913330 
	C458.318115,311.434967 448.402832,301.598969 433.115387,297.422394 
	C426.929474,295.732391 425.266846,297.163788 424.014282,303.502747 
	C422.403687,311.653503 424.674988,318.908997 428.916504,326.537903 
M569.052551,319.605194 
	C570.632080,323.241089 572.211609,326.876984 573.533936,329.920746 
	C577.385559,323.371582 580.082581,315.947632 585.162170,310.940979 
	C590.316284,305.860870 597.822693,303.167328 604.980042,299.035339 
	C589.182068,295.146027 578.235229,286.317474 573.863464,269.791199 
	C569.427979,286.184418 558.429321,295.054047 543.007141,299.739685 
	C553.335388,304.519806 563.761353,308.105377 569.052551,319.605194 
M551.356995,340.078491 
	C541.884521,336.860718 532.671509,337.560547 523.872253,342.246521 
	C512.580261,348.259949 507.002167,358.846039 502.369751,370.030182 
	C501.125671,373.033783 503.473694,373.915985 505.888855,373.820465 
	C512.013062,373.578308 518.276123,373.856995 524.219971,372.639801 
	C538.612915,369.692352 548.929504,361.490356 553.182007,346.972687 
	C553.750732,345.031158 552.523560,342.563568 551.356995,340.078491 
M683.789429,613.457642 
	C683.790344,612.791931 683.786621,612.126099 683.792847,611.460449 
	C683.833374,607.137085 682.258484,601.496521 684.392151,598.876465 
	C686.359497,596.460449 692.292786,597.081421 696.509583,596.743042 
	C700.864563,596.393677 699.567078,593.279480 699.819275,590.843872 
	C700.095764,588.173157 699.177612,586.823914 696.221252,586.956909 
	C692.285461,587.133911 688.335815,587.000671 683.772156,587.000671 
	C683.772156,581.452698 683.772156,576.559631 683.772156,571.807617 
	C672.751587,569.807312 672.029114,570.193787 672.347473,580.306458 
	C672.503174,585.253784 671.472229,587.978699 665.927185,587.041565 
	C665.180176,586.915344 664.355286,587.249634 663.668823,587.354919 
	C662.141235,595.409607 662.194824,595.312134 669.506165,596.861145 
	C670.633179,597.099915 672.097473,599.213501 672.144653,600.505981 
	C672.405396,607.652954 672.245117,614.814392 672.288208,621.970459 
	C672.326599,628.353638 674.936157,633.553345 680.865723,635.994873 
	C687.760071,638.833679 694.778442,638.301514 701.610229,634.330627 
	C701.007935,632.292908 700.767334,630.214905 699.777954,628.593994 
	C699.160156,627.581604 697.312622,626.568848 696.188416,626.732788 
	C685.054504,628.356262 683.767700,627.306946 683.783691,615.936951 
	C683.784363,615.437683 683.786011,614.938354 683.789429,613.457642 
M307.719116,636.703552 
	C310.594055,636.210327 314.902496,638.454224 314.892609,632.634705 
	C314.852692,609.144958 314.923676,585.654846 314.828918,562.165405 
	C314.823944,560.941101 313.976715,559.073547 312.997528,558.608276 
	C307.922729,556.196655 303.483704,558.645996 303.444153,564.091675 
	C303.277222,587.080627 303.287445,610.071655 303.471680,633.059998 
	C303.481506,634.281677 305.674774,635.485840 307.719116,636.703552 
z"/>
<path fill="#ED9398" opacity="1.000000" stroke="none" 
	d="
M651.053162,499.141968 
	C644.627258,510.468079 634.345093,515.674927 621.882812,515.739929 
	C571.219360,516.004395 520.553772,515.856445 469.888977,515.858704 
	C440.390076,515.860046 410.886719,515.547974 381.393829,515.968262 
	C362.343903,516.239807 343.662170,502.287384 344.092377,478.669647 
	C344.720581,444.182465 344.236359,409.675079 344.238251,375.176331 
	C344.238983,361.861694 350.143433,353.396729 362.470215,348.232544 
	C376.135651,342.507477 389.689911,336.516510 403.279785,330.611786 
	C408.158752,328.491852 411.800262,329.395233 413.385834,333.222565 
	C414.988861,337.092041 413.599762,339.742371 408.563812,341.977722 
	C396.248596,347.444153 383.903168,352.842499 370.819275,358.598450 
	C372.352081,359.587402 373.432190,360.411560 374.618988,361.031525 
	C412.105316,380.613800 449.631165,400.120697 487.075714,419.782501 
	C495.880646,424.405884 504.453430,424.774323 513.298462,420.149109 
	C551.080139,400.392273 588.884705,380.679260 626.673035,360.935242 
	C627.511230,360.497284 628.255981,359.880493 630.046326,358.669159 
	C624.517212,356.186035 619.781250,354.034149 615.024780,351.928741 
	C607.414001,348.559906 599.796814,345.204987 592.167603,341.877991 
	C588.313599,340.197296 586.157776,337.575409 587.665222,333.244507 
	C588.968933,329.498932 592.623474,328.387360 597.269653,330.411194 
	C612.680298,337.123962 628.063049,343.902283 643.397156,350.787537 
	C645.318359,351.650208 646.884705,353.303040 648.797485,355.283478 
	C650.215088,360.384674 651.484497,364.783081 652.662781,369.205811 
	C652.964294,370.337921 653.094971,371.546783 653.095581,372.720459 
	C653.096375,374.430481 652.900269,376.140137 652.803101,377.850769 
	C652.709412,379.501221 652.634766,381.152771 652.592468,381.994507 
	C649.316040,381.994507 646.867310,381.994507 644.307251,381.541016 
	C644.123962,377.590881 644.218567,374.080078 643.922607,370.602448 
	C643.718811,368.206512 642.918335,366.373474 639.743164,368.118164 
	C633.181641,371.723541 626.471619,375.057709 619.838867,378.534271 
	C585.921509,396.312103 552.047668,414.173370 518.074524,431.843994 
	C506.196869,438.021973 494.200714,437.917023 482.281342,431.469574 
	C471.446777,425.608856 460.492035,419.969910 449.578979,414.254669 
	C427.159637,402.513519 404.736389,390.779724 382.306915,379.057892 
	C374.529510,374.993347 366.728973,370.973083 358.014313,366.453003 
	C357.545349,370.146210 356.869385,373.014465 356.864319,375.883881 
	C356.803894,410.037567 356.790833,444.191620 356.879303,478.345276 
	C356.921967,494.815857 365.330597,503.220276 381.920197,503.232788 
	C460.890747,503.292267 539.861450,503.221985 618.831909,503.324127 
	C626.294434,503.333771 632.978699,501.836212 638.999634,496.967041 
	C643.850708,499.268677 644.425659,495.687622 646.107727,492.509216 
	C644.394104,492.296417 643.192444,492.147217 642.028381,491.647705 
	C642.506958,490.201294 642.947937,489.105194 643.768188,488.007019 
	C651.796021,488.597931 653.333984,491.078186 651.053162,499.141968 
M649.918640,374.697662 
	C649.408875,374.438354 648.899048,374.179047 648.389282,373.919708 
	C648.393005,374.657684 648.396790,375.395660 648.400574,376.133606 
	C648.907837,375.869019 649.415100,375.604431 649.918640,374.697662 
z"/>
<path fill="#EE979A" opacity="1.000000" stroke="none" 
	d="
M522.229858,291.900574 
	C529.860413,327.978882 501.484802,356.613708 475.652557,365.124969 
	C474.951782,361.923676 474.052032,358.825928 473.618927,355.664246 
	C471.427795,339.669006 470.933655,323.789307 478.279724,308.758698 
	C484.431061,296.172577 493.928528,286.972534 506.759338,281.239777 
	C515.122192,277.503296 517.356018,278.352386 520.569458,286.754822 
	C521.163147,288.307129 521.591003,289.922852 522.229858,291.900574 
z"/>
<path fill="#ED969A" opacity="1.000000" stroke="none" 
	d="
M288.207703,590.059326 
	C286.097504,592.594238 284.161346,594.798340 281.940125,597.326904 
	C288.466125,600.207336 292.696716,605.040222 293.753418,612.105713 
	C295.252808,622.131653 290.721771,630.326355 281.246277,633.981262 
	C277.297821,635.504272 272.910095,636.330322 268.672058,636.563416 
	C261.209625,636.973816 253.705063,636.545349 246.225494,636.744385 
	C242.052826,636.855408 240.177765,635.503357 240.208160,631.043091 
	C240.354355,609.587708 240.297424,588.130859 240.281601,566.674561 
	C240.279587,563.956787 240.624237,561.328247 244.019348,561.375000 
	C253.968567,561.512024 264.021576,561.075439 273.836243,562.366516 
	C288.128937,564.246582 294.214417,576.494080 288.207703,590.059326 
M251.993851,613.516846 
	C251.993851,617.601135 251.993851,621.685364 251.993851,625.853516 
	C253.905090,625.999329 255.048294,626.161560 256.191406,626.160828 
	C261.178772,626.157654 266.181946,626.344482 271.149506,626.013550 
	C277.339722,625.601074 281.603302,621.627930 282.150024,616.346863 
	C282.862000,609.469360 280.173157,604.741943 273.132751,603.720825 
	C266.390137,602.742920 259.394501,603.509766 251.994812,603.509766 
	C251.994812,606.619934 251.994812,609.576172 251.993851,613.516846 
M254.760925,593.086853 
	C259.410370,593.075134 264.073364,593.282471 268.705811,592.995789 
	C274.425171,592.641846 278.451385,588.587830 278.913971,583.252808 
	C279.375305,577.931519 275.986237,573.049377 270.166809,572.375610 
	C264.350952,571.702332 258.396332,572.227966 252.036423,572.227966 
	C252.036423,578.618896 251.965454,584.566284 252.116028,590.508118 
	C252.137619,591.360291 253.228607,592.185425 254.760925,593.086853 
z"/>
<path fill="#A998CD" opacity="1.000000" stroke="none" 
	d="
M547.932495,631.692993 
	C547.332947,637.111450 546.556152,637.426514 537.397034,636.185913 
	C537.397034,611.547485 537.397034,586.843567 537.394653,562.138428 
	C544.772766,560.001160 546.947327,560.638550 551.273193,566.773804 
	C562.470093,582.654114 573.586487,598.591187 585.438599,615.509949 
	C585.701721,613.249451 585.948242,612.103394 585.951477,610.956665 
	C585.993835,595.966919 586.173096,580.974060 585.912903,565.989075 
	C585.835999,561.562073 587.809875,561.084412 591.311462,561.258423 
	C594.677124,561.425659 597.926086,560.674133 597.794434,566.111755 
	C597.351379,584.409973 597.278137,602.717590 597.142822,621.022278 
	C597.119568,624.167236 597.880737,627.359741 597.533203,630.446228 
	C597.295166,632.560913 595.938904,636.132507 594.777344,636.259338 
	C591.485535,636.618896 587.541016,638.389771 584.770752,634.361572 
	C578.834534,625.729858 572.682373,617.247131 566.677063,608.662537 
	C560.799622,600.260681 554.994751,591.808105 547.933777,583.653259 
	C547.933777,599.512390 547.933777,615.371521 547.932495,631.692993 
z"/>
<path fill="#ED9499" opacity="1.000000" stroke="none" 
	d="
M490.338440,603.995544 
	C490.080566,613.049622 489.736786,621.712219 489.957092,630.360474 
	C490.073181,634.917114 489.060089,636.775574 483.982941,636.862549 
	C478.459290,636.957153 478.187897,634.316895 478.301971,630.127197 
	C478.515076,622.300476 478.396851,614.463745 478.357208,606.631531 
	C478.323212,599.913086 474.666229,595.899170 468.635345,595.842041 
	C461.854889,595.777771 456.902985,600.130432 456.774353,606.647949 
	C456.603333,615.310547 456.602661,623.980164 456.737030,632.643494 
	C456.792236,636.204285 454.923218,637.046082 452.029602,636.601257 
	C449.468994,636.207703 445.289551,638.400513 445.249847,633.286499 
	C445.132416,618.150635 445.207886,603.013245 445.207886,587.585144 
	C449.622101,587.064819 454.068695,584.827454 455.833771,591.676086 
	C467.246185,582.914001 477.918060,582.628845 487.732788,593.712769 
	C493.185516,586.423706 500.500977,584.303772 508.954376,586.032104 
	C517.831604,587.847229 523.521362,594.704712 523.694275,603.716370 
	C523.876526,613.211853 523.539368,622.719177 523.815125,632.210144 
	C523.967163,637.442566 520.599731,636.519470 517.504211,636.683838 
	C514.293518,636.854370 512.038452,636.509949 512.174683,632.278503 
	C512.432007,624.287415 512.279175,616.282532 512.259949,608.283447 
	C512.242004,600.803040 510.071564,597.442566 504.516785,596.050415 
	C499.433899,594.776672 491.999023,597.502319 490.338440,603.995544 
z"/>
<path fill="#AB9ACE" opacity="1.000000" stroke="none" 
	d="
M705.170959,610.175781 
	C706.332336,598.400269 711.881653,590.388000 722.924377,586.772522 
	C733.868103,583.189453 743.218323,585.757324 750.828308,594.493591 
	C755.580994,599.949585 756.270264,606.504700 755.649048,613.257751 
	C755.560730,614.218689 753.232300,615.679871 751.914368,615.708679 
	C742.087219,615.923889 732.253418,615.836609 722.421753,615.843628 
	C720.782227,615.844849 719.142639,615.843811 717.522034,615.843811 
	C717.384583,622.650574 724.597595,628.564941 732.460571,627.862061 
	C736.147095,627.532471 740.241516,626.528076 743.191772,624.460571 
	C747.338257,621.554749 749.611938,622.170044 751.702576,626.324829 
	C752.068176,627.051331 752.615234,627.686584 753.042969,628.311951 
	C747.578186,636.538696 734.927673,639.919861 723.274536,636.383789 
	C711.865540,632.921814 705.260071,623.521667 705.170959,610.175781 
M742.012878,599.576416 
	C737.419128,594.557068 731.810791,593.861206 725.669861,595.900635 
	C720.592834,597.586731 717.499512,601.082703 716.370667,606.620056 
	C725.962891,606.620056 735.216553,606.620056 745.154541,606.620056 
	C744.086365,604.045349 743.281921,602.106201 742.012878,599.576416 
z"/>
<path fill="#ED969A" opacity="1.000000" stroke="none" 
	d="
M651.371582,499.002930 
	C653.333984,491.078186 651.796021,488.597931 643.737854,487.595459 
	C643.582642,484.047852 644.049866,480.910278 644.057739,477.771545 
	C644.118591,453.486938 644.065002,429.202087 644.105347,404.917389 
	C644.118042,397.276276 644.309143,389.635468 644.418579,381.994507 
	C646.867310,381.994507 649.316040,381.994507 652.592468,381.994507 
	C652.634766,381.152771 652.709412,379.501221 652.803101,377.850769 
	C652.900269,376.140137 653.096375,374.430481 653.095581,372.720459 
	C653.094971,371.546783 652.964294,370.337921 652.662781,369.205811 
	C651.484497,364.783081 650.215088,360.384674 648.959473,355.583435 
	C654.841248,359.583771 656.585754,366.145660 656.629272,372.769226 
	C656.870422,409.507935 656.926758,446.251495 656.490417,482.986816 
	C656.427368,488.297424 653.364685,493.572418 651.371582,499.002930 
z"/>
<path fill="#ED969A" opacity="1.000000" stroke="none" 
	d="
M387.145752,597.243164 
	C397.744415,581.394104 421.178650,581.746277 431.489563,595.652588 
	C438.609100,605.254700 438.382904,617.353027 431.016510,627.671692 
	C424.916840,636.216003 412.884521,639.791809 401.460907,636.455200 
	C390.619354,633.288696 383.302032,624.116760 383.465515,612.329834 
	C383.533966,607.393188 385.740631,602.486145 387.145752,597.243164 
M404.808685,626.993225 
	C405.456177,627.142761 406.102081,627.299561 406.751404,627.440491 
	C412.401031,628.666687 419.186615,626.131226 422.179474,621.678467 
	C426.031342,615.947754 426.253845,607.620056 422.696655,602.323547 
	C419.001648,596.821838 413.064209,594.399902 406.731598,595.811279 
	C399.280121,597.472046 394.840973,602.427185 394.072968,609.941223 
	C393.373871,616.781128 397.371796,623.557556 404.808685,626.993225 
z"/>
<path fill="#AB9ACE" opacity="1.000000" stroke="none" 
	d="
M621.228027,588.120972 
	C631.514465,583.640198 641.131653,584.259338 649.901184,590.656433 
	C658.407715,596.861755 660.927429,605.968872 659.453918,615.857666 
	C657.876770,626.441589 651.539795,633.907166 641.075867,636.619751 
	C629.993469,639.492615 619.851685,637.177673 612.440979,627.786316 
	C601.960022,614.504028 605.911865,596.561829 621.228027,588.120972 
M646.651611,619.913940 
	C650.320679,613.221924 649.718933,606.716553 645.143250,600.827393 
	C640.973694,595.460938 634.957886,594.993469 628.829285,596.219971 
	C622.691589,597.448364 618.235413,603.307251 617.896729,609.981689 
	C617.479248,618.207336 621.336609,624.585571 628.152283,626.939575 
	C635.147461,629.355591 641.470154,627.138367 646.651611,619.913940 
z"/>
<path fill="#ED9499" opacity="1.000000" stroke="none" 
	d="
M329.087799,626.844849 
	C321.455139,614.868774 322.973450,600.868347 332.641937,592.047058 
	C342.080231,583.435852 357.829132,582.992065 368.064667,591.048950 
	C376.561676,597.737366 379.661102,612.439819 374.789978,622.951660 
	C369.831451,633.652161 357.877716,639.663574 346.331451,637.402893 
	C339.372253,636.040344 333.518158,632.973450 329.087799,626.844849 
M338.042480,621.241577 
	C343.305878,627.467529 349.364502,629.363464 356.056366,626.878662 
	C362.525146,624.476685 366.243042,618.511902 366.133545,610.711426 
	C366.018311,602.500305 360.270447,596.296143 352.035339,595.494141 
	C344.036743,594.715210 337.100555,599.459167 335.989929,607.668579 
	C335.428467,611.818481 337.044922,616.263123 338.042480,621.241577 
z"/>
<path fill="#B19ED2" opacity="1.000000" stroke="none" 
	d="
M428.746643,326.210052 
	C424.674988,318.908997 422.403687,311.653503 424.014282,303.502747 
	C425.266846,297.163788 426.929474,295.732391 433.115387,297.422394 
	C448.402832,301.598969 458.318115,311.434967 461.701569,326.913330 
	C463.199768,333.767181 462.937714,341.005768 463.594360,349.643585 
	C448.414856,345.429749 436.627411,339.153900 428.746643,326.210052 
z"/>
<path fill="#B19ED2" opacity="1.000000" stroke="none" 
	d="
M568.882935,319.274658 
	C563.761353,308.105377 553.335388,304.519806 543.007141,299.739685 
	C558.429321,295.054047 569.427979,286.184418 573.863464,269.791199 
	C578.235229,286.317474 589.182068,295.146027 604.980042,299.035339 
	C597.822693,303.167328 590.316284,305.860870 585.162170,310.940979 
	C580.082581,315.947632 577.385559,323.371582 573.533936,329.920746 
	C572.211609,326.876984 570.632080,323.241089 568.882935,319.274658 
z"/>
<path fill="#B19ED2" opacity="1.000000" stroke="none" 
	d="
M551.742554,340.209045 
	C552.523560,342.563568 553.750732,345.031158 553.182007,346.972687 
	C548.929504,361.490356 538.612915,369.692352 524.219971,372.639801 
	C518.276123,373.856995 512.013062,373.578308 505.888855,373.820465 
	C503.473694,373.915985 501.125671,373.033783 502.369751,370.030182 
	C507.002167,358.846039 512.580261,348.259949 523.872253,342.246521 
	C532.671509,337.560547 541.884521,336.860718 551.742554,340.209045 
z"/>
<path fill="#AB9ACE" opacity="1.000000" stroke="none" 
	d="
M683.788330,613.948364 
	C683.786011,614.938354 683.784363,615.437683 683.783691,615.936951 
	C683.767700,627.306946 685.054504,628.356262 696.188416,626.732788 
	C697.312622,626.568848 699.160156,627.581604 699.777954,628.593994 
	C700.767334,630.214905 701.007935,632.292908 701.610229,634.330627 
	C694.778442,638.301514 687.760071,638.833679 680.865723,635.994873 
	C674.936157,633.553345 672.326599,628.353638 672.288208,621.970459 
	C672.245117,614.814392 672.405396,607.652954 672.144653,600.505981 
	C672.097473,599.213501 670.633179,597.099915 669.506165,596.861145 
	C662.194824,595.312134 662.141235,595.409607 663.668823,587.354919 
	C664.355286,587.249634 665.180176,586.915344 665.927185,587.041565 
	C671.472229,587.978699 672.503174,585.253784 672.347473,580.306458 
	C672.029114,570.193787 672.751587,569.807312 683.772156,571.807617 
	C683.772156,576.559631 683.772156,581.452698 683.772156,587.000671 
	C688.335815,587.000671 692.285461,587.133911 696.221252,586.956909 
	C699.177612,586.823914 700.095764,588.173157 699.819275,590.843872 
	C699.567078,593.279480 700.864563,596.393677 696.509583,596.743042 
	C692.292786,597.081421 686.359497,596.460449 684.392151,598.876465 
	C682.258484,601.496521 683.833374,607.137085 683.792847,611.460449 
	C683.786621,612.126099 683.790344,612.791931 683.788330,613.948364 
z"/>
<path fill="#EF9A9E" opacity="1.000000" stroke="none" 
	d="
M307.285370,636.700867 
	C305.674774,635.485840 303.481506,634.281677 303.471680,633.059998 
	C303.287445,610.071655 303.277222,587.080627 303.444153,564.091675 
	C303.483704,558.645996 307.922729,556.196655 312.997528,558.608276 
	C313.976715,559.073547 314.823944,560.941101 314.828918,562.165405 
	C314.923676,585.654846 314.852692,609.144958 314.892609,632.634705 
	C314.902496,638.454224 310.594055,636.210327 307.285370,636.700867 
z"/>
<path fill="#FAF8F5" opacity="1.000000" stroke="none" 
	d="
M644.307251,381.541016 
	C644.309143,389.635468 644.118042,397.276276 644.105347,404.917389 
	C644.065002,429.202087 644.118591,453.486938 644.057739,477.771545 
	C644.049866,480.910278 643.582642,484.047852 643.358582,487.597534 
	C642.947937,489.105194 642.506958,490.201294 641.748352,491.817566 
	C640.502686,493.827911 639.574646,495.318115 638.646667,496.808319 
	C632.978699,501.836212 626.294434,503.333771 618.831909,503.324127 
	C539.861450,503.221985 460.890747,503.292267 381.920197,503.232788 
	C365.330597,503.220276 356.921967,494.815857 356.879303,478.345276 
	C356.790833,444.191620 356.803894,410.037567 356.864319,375.883881 
	C356.869385,373.014465 357.545349,370.146210 358.014313,366.453003 
	C366.728973,370.973083 374.529510,374.993347 382.306915,379.057892 
	C404.736389,390.779724 427.159637,402.513519 449.578979,414.254669 
	C460.492035,419.969910 471.446777,425.608856 482.281342,431.469574 
	C494.200714,437.917023 506.196869,438.021973 518.074524,431.843994 
	C552.047668,414.173370 585.921509,396.312103 619.838867,378.534271 
	C626.471619,375.057709 633.181641,371.723541 639.743164,368.118164 
	C642.918335,366.373474 643.718811,368.206512 643.922607,370.602448 
	C644.218567,374.080078 644.123962,377.590881 644.307251,381.541016 
z"/>
<path fill="#ED969A" opacity="1.000000" stroke="none" 
	d="
M638.999634,496.967041 
	C639.574646,495.318115 640.502686,493.827911 641.710754,492.167877 
	C643.192444,492.147217 644.394104,492.296417 646.107727,492.509216 
	C644.425659,495.687622 643.850708,499.268677 638.999634,496.967041 
z"/>
<path fill="#ED969A" opacity="1.000000" stroke="none" 
	d="
M649.920532,375.018738 
	C649.415100,375.604431 648.907837,375.869019 648.400574,376.133606 
	C648.396790,375.395660 648.393005,374.657684 648.389282,373.919708 
	C648.899048,374.179047 649.408875,374.438354 649.920532,375.018738 
z"/>
<path fill="#FAF8F5" opacity="1.000000" stroke="none" 
	d="
M251.994324,613.024658 
	C251.994812,609.576172 251.994812,606.619934 251.994812,603.509766 
	C259.394501,603.509766 266.390137,602.742920 273.132751,603.720825 
	C280.173157,604.741943 282.862000,609.469360 282.150024,616.346863 
	C281.603302,621.627930 277.339722,625.601074 271.149506,626.013550 
	C266.181946,626.344482 261.178772,626.157654 256.191406,626.160828 
	C255.048294,626.161560 253.905090,625.999329 251.993851,625.853516 
	C251.993851,621.685364 251.993851,617.601135 251.994324,613.024658 
z"/>
<path fill="#FAF6F3" opacity="1.000000" stroke="none" 
	d="
M254.292816,593.054932 
	C253.228607,592.185425 252.137619,591.360291 252.116028,590.508118 
	C251.965454,584.566284 252.036423,578.618896 252.036423,572.227966 
	C258.396332,572.227966 264.350952,571.702332 270.166809,572.375610 
	C275.986237,573.049377 279.375305,577.931519 278.913971,583.252808 
	C278.451385,588.587830 274.425171,592.641846 268.705811,592.995789 
	C264.073364,593.282471 259.410370,593.075134 254.292816,593.054932 
z"/>
<path fill="#FAF6F3" opacity="1.000000" stroke="none" 
	d="
M742.245178,599.871765 
	C743.281921,602.106201 744.086365,604.045349 745.154541,606.620056 
	C735.216553,606.620056 725.962891,606.620056 716.370667,606.620056 
	C717.499512,601.082703 720.592834,597.586731 725.669861,595.900635 
	C731.810791,593.861206 737.419128,594.557068 742.245178,599.871765 
z"/>
<path fill="#FAF6F3" opacity="1.000000" stroke="none" 
	d="
M404.423767,626.913269 
	C397.371796,623.557556 393.373871,616.781128 394.072968,609.941223 
	C394.840973,602.427185 399.280121,597.472046 406.731598,595.811279 
	C413.064209,594.399902 419.001648,596.821838 422.696655,602.323547 
	C426.253845,607.620056 426.031342,615.947754 422.179474,621.678467 
	C419.186615,626.131226 412.401031,628.666687 406.751404,627.440491 
	C406.102081,627.299561 405.456177,627.142761 404.423767,626.913269 
z"/>
<path fill="#FAF6F3" opacity="1.000000" stroke="none" 
	d="
M646.468994,620.247192 
	C641.470154,627.138367 635.147461,629.355591 628.152283,626.939575 
	C621.336609,624.585571 617.479248,618.207336 617.896729,609.981689 
	C618.235413,603.307251 622.691589,597.448364 628.829285,596.219971 
	C634.957886,594.993469 640.973694,595.460938 645.143250,600.827393 
	C649.718933,606.716553 650.320679,613.221924 646.468994,620.247192 
z"/>
<path fill="#FAF6F3" opacity="1.000000" stroke="none" 
	d="
M337.859558,620.908020 
	C337.044922,616.263123 335.428467,611.818481 335.989929,607.668579 
	C337.100555,599.459167 344.036743,594.715210 352.035339,595.494141 
	C360.270447,596.296143 366.018311,602.500305 366.133545,610.711426 
	C366.243042,618.511902 362.525146,624.476685 356.056366,626.878662 
	C349.364502,629.363464 343.305878,627.467529 337.859558,620.908020 
z"/>
</svg>